<svg width="52" height="52" viewBox="0 0 52 52" fill="none" xmlns="http://www.w3.org/2000/svg">
<rect opacity="0.29" width="52" height="52" rx="5" fill="white"/>
<path d="M42.006 18.7314L42.0075 18.7335C42.0579 18.8061 42.0712 18.9011 42.0386 18.9892C42.0385 18.9895 42.0384 18.9897 42.0383 18.99L36.7071 33.2066C36.707 33.2069 36.7069 33.2072 36.7068 33.2075C36.665 33.3169 36.5596 33.3889 36.4444 33.3889H22.2222C22.1096 33.3889 22.0086 33.321 21.9659 33.2186L21.9659 33.2186L13.5322 12.9786L13.1475 12.0556H12.1476H9.5V11.5H12.1476C12.9824 11.5 13.7231 11.9931 14.0447 12.7635C14.0447 12.7637 14.0448 12.7638 14.0449 12.7639C14.0449 12.764 14.0449 12.764 14.0449 12.7641L16.0962 17.688L16.4808 18.6111H17.4809H41.7778C41.8678 18.6111 41.9532 18.6552 42.006 18.7314Z" stroke="white" stroke-width="3"/>
<path d="M23.1111 42C24.5839 42 25.7778 40.8061 25.7778 39.3333C25.7778 37.8605 24.5839 36.6666 23.1111 36.6666C21.6384 36.6666 20.4445 37.8605 20.4445 39.3333C20.4445 40.8061 21.6384 42 23.1111 42Z" fill="white"/>
<path d="M35.5556 42C37.0283 42 38.2222 40.8061 38.2222 39.3333C38.2222 37.8605 37.0283 36.6666 35.5556 36.6666C34.0828 36.6666 32.8889 37.8605 32.8889 39.3333C32.8889 40.8061 34.0828 42 35.5556 42Z" fill="white"/>
</svg>
